<svg width="111" height="41" viewBox="0 0 111 41" fill="none" xmlns="http://www.w3.org/2000/svg">
<rect x="1" y="1" width="110" height="40" rx="10" fill="#C0EF00"/>
<path d="M14.352 28H12.552V17.2H6.18V15.4H20.724V17.2H14.352V28ZM32.7375 28H25.9875C25.3035 28 24.6615 27.874 24.0615 27.622C23.4735 27.358 22.9515 26.998 22.4955 26.542C22.0515 26.086 21.7035 25.564 21.4515 24.976C21.1995 24.376 21.0735 23.734 21.0735 23.05V18.1H22.8735V23.05C22.8735 23.626 23.0115 24.154 23.2875 24.634C23.5755 25.102 23.9535 25.48 24.4215 25.768C24.8895 26.044 25.4115 26.188 25.9875 26.2H30.9375V18.1H32.7375V28ZM37.1331 28H35.3331V18.1H42.0831C42.7671 18.1 43.4031 18.232 43.9911 18.496C44.5911 18.748 45.1131 19.102 45.5571 19.558C46.0131 20.014 46.3671 20.542 46.6191 21.142C46.8711 21.73 46.9971 22.366 46.9971 23.05V28H45.1971V23.05C45.1971 22.474 45.0591 21.952 44.7831 21.484C44.5071 21.004 44.1291 20.62 43.6491 20.332C43.1811 20.044 42.6591 19.9 42.0831 19.9H37.1331V28ZM60.9508 21.25C60.9508 21.826 60.8068 22.354 60.5188 22.834C60.2428 23.314 59.8648 23.698 59.3848 23.986C58.9168 24.262 58.3888 24.4 57.8008 24.4H50.9068C51.1588 24.928 51.5308 25.36 52.0228 25.696C52.5268 26.032 53.0908 26.2 53.7148 26.2H59.6008V28H53.7148C53.0308 28 52.3888 27.874 51.7888 27.622C51.2008 27.358 50.6788 26.998 50.2228 26.542C49.7788 26.086 49.4308 25.564 49.1788 24.976C48.9268 24.376 48.8008 23.734 48.8008 23.05C48.8008 22.366 48.9268 21.73 49.1788 21.142C49.4308 20.542 49.7788 20.014 50.2228 19.558C50.6788 19.102 51.2008 18.748 51.7888 18.496C52.3888 18.232 53.0308 18.1 53.7148 18.1H57.8008C58.3888 18.1 58.9168 18.244 59.3848 18.532C59.8648 18.808 60.2428 19.186 60.5188 19.666C60.8068 20.134 60.9508 20.662 60.9508 21.25ZM57.8008 22.6C58.1728 22.6 58.4908 22.468 58.7548 22.204C59.0188 21.94 59.1508 21.622 59.1508 21.25C59.1508 20.878 59.0188 20.56 58.7548 20.296C58.4908 20.032 58.1728 19.9 57.8008 19.9H53.7148C53.1868 19.9 52.7008 20.02 52.2568 20.26C51.8248 20.5 51.4648 20.824 51.1768 21.232C50.8888 21.64 50.7088 22.096 50.6368 22.6H57.8008ZM69.7758 28H67.9758V17.2H61.6038V15.4H76.1478V17.2H69.7758V28ZM86.855 28H77.855C77.279 28 76.751 27.862 76.271 27.586C75.791 27.298 75.407 26.92 75.119 26.452C74.843 25.972 74.705 25.438 74.705 24.85C74.705 24.262 74.843 23.734 75.119 23.266C75.407 22.786 75.791 22.408 76.271 22.132C76.751 21.844 77.279 21.7 77.855 21.7H84.155V23.5H77.855C77.483 23.5 77.165 23.632 76.901 23.896C76.637 24.16 76.505 24.478 76.505 24.85C76.505 25.222 76.637 25.54 76.901 25.804C77.165 26.068 77.483 26.2 77.855 26.2H85.055V21.25C85.055 20.878 84.923 20.56 84.659 20.296C84.395 20.032 84.077 19.9 83.705 19.9H76.505V18.1H83.705C84.293 18.1 84.821 18.244 85.289 18.532C85.769 18.808 86.147 19.186 86.423 19.666C86.711 20.134 86.855 20.662 86.855 21.25V28ZM92.8963 28H92.4463C91.8703 28 91.3423 27.862 90.8623 27.586C90.3823 27.298 89.9983 26.92 89.7103 26.452C89.4343 25.972 89.2963 25.438 89.2963 24.85V14.5H91.0963V24.85C91.0963 25.222 91.2283 25.54 91.4923 25.804C91.7563 26.068 92.0743 26.2 92.4463 26.2H92.8963V28ZM106.184 28H103.61L98.3539 23.77L96.2659 25.48V28H94.4659V14.5H96.2659V23.572L102.818 18.1H105.266L99.6679 22.69L106.184 28Z" fill="black"/>
</svg>
