<svg width="21" height="20" viewBox="0 0 21 20" fill="none" xmlns="http://www.w3.org/2000/svg">
<g clip-path="url(#clip0_475_1775)">
<path d="M20.3051 10.2302C20.3051 9.55044 20.2499 8.86699 20.1324 8.19824H10.7V12.0491H16.1015C15.8773 13.291 15.1572 14.3897 14.1026 15.0878V17.5864H17.3251C19.2174 15.8448 20.3051 13.2726 20.3051 10.2302Z" fill="#4285F4"/>
<path d="M10.7 20.0008C13.397 20.0008 15.6715 19.1152 17.3287 17.5867L14.1062 15.088C13.2096 15.698 12.0522 16.0434 10.7037 16.0434C8.0948 16.0434 5.88279 14.2833 5.08911 11.917H1.76373V14.4928C3.46133 17.8696 6.91898 20.0008 10.7 20.0008Z" fill="#34A853"/>
<path d="M5.08549 11.9172C4.66661 10.6753 4.66661 9.33044 5.08549 8.08848V5.5127H1.76379C0.345459 8.33834 0.345459 11.6674 1.76379 14.493L5.08549 11.9172Z" fill="#FBBC04"/>
<path d="M10.7 3.95805C12.1257 3.936 13.5036 4.47247 14.5361 5.45722L17.3911 2.60218C15.5833 0.904587 13.1839 -0.0287217 10.7 0.000673888C6.91898 0.000673888 3.46133 2.13185 1.76373 5.51234L5.08543 8.08813C5.87544 5.71811 8.09113 3.95805 10.7 3.95805Z" fill="#EA4335"/>
</g>
<defs>
<clipPath id="clip0_475_1775">
<rect width="20" height="20" fill="white" transform="translate(0.5)"/>
</clipPath>
</defs>
</svg>
