<svg width="16" height="16" viewBox="0 0 16 16" fill="none" xmlns="http://www.w3.org/2000/svg">
<path d="M11.3333 4.66699H9.33325C8.96659 4.66699 8.66659 4.96699 8.66659 5.33366C8.66659 5.70033 8.96659 6.00033 9.33325 6.00033H11.3333C12.4333 6.00033 13.3333 6.90033 13.3333 8.00033C13.3333 9.10033 12.4333 10.0003 11.3333 10.0003H9.33325C8.96659 10.0003 8.66659 10.3003 8.66659 10.667C8.66659 11.0337 8.96659 11.3337 9.33325 11.3337H11.3333C13.1733 11.3337 14.6666 9.84033 14.6666 8.00033C14.6666 6.16033 13.1733 4.66699 11.3333 4.66699ZM5.33325 8.00033C5.33325 8.36699 5.63325 8.66699 5.99992 8.66699H9.99992C10.3666 8.66699 10.6666 8.36699 10.6666 8.00033C10.6666 7.63366 10.3666 7.33366 9.99992 7.33366H5.99992C5.63325 7.33366 5.33325 7.63366 5.33325 8.00033ZM6.66659 10.0003H4.66659C3.56659 10.0003 2.66659 9.10033 2.66659 8.00033C2.66659 6.90033 3.56659 6.00033 4.66659 6.00033H6.66659C7.03325 6.00033 7.33325 5.70033 7.33325 5.33366C7.33325 4.96699 7.03325 4.66699 6.66659 4.66699H4.66659C2.82659 4.66699 1.33325 6.16033 1.33325 8.00033C1.33325 9.84033 2.82659 11.3337 4.66659 11.3337H6.66659C7.03325 11.3337 7.33325 11.0337 7.33325 10.667C7.33325 10.3003 7.03325 10.0003 6.66659 10.0003Z" fill="#6D6D6D"/>
</svg>
